# Blender v2.74 (sub 0) OBJ File: 'Coin.blend'
# www.blender.org
mtllib Coin.mtl
o Coin_Cylinder.001
v 1.001667 0.000000 -0.101667
v 1.001667 0.000000 0.098333
v 0.941359 -0.342020 -0.101667
v 0.941360 -0.342020 0.098333
v 0.767711 -0.642788 -0.101667
v 0.767711 -0.642787 0.098333
v 0.501667 -0.866025 -0.101667
v 0.501667 -0.866025 0.098333
v 0.175315 -0.984808 -0.101666
v 0.175315 -0.984808 0.098333
v -0.171981 -0.984808 -0.101666
v -0.171981 -0.984808 0.098334
v -0.498333 -0.866026 -0.101666
v -0.498333 -0.866025 0.098334
v -0.764378 -0.642788 -0.101666
v -0.764377 -0.642788 0.098334
v -0.938026 -0.342020 -0.101666
v -0.938026 -0.342020 0.098334
v -0.998333 -0.000000 -0.101666
v -0.998333 -0.000000 0.098334
v -0.938026 0.342020 -0.101666
v -0.938026 0.342020 0.098334
v -0.764378 0.642787 -0.101666
v -0.764378 0.642787 0.098334
v -0.498334 0.866025 -0.101667
v -0.498333 0.866025 0.098334
v -0.171982 0.984808 -0.101667
v -0.171982 0.984808 0.098334
v 0.175314 0.984808 -0.101667
v 0.175315 0.984808 0.098333
v 0.501666 0.866026 -0.101667
v 0.501666 0.866026 0.098333
v 0.767711 0.642788 -0.101667
v 0.767711 0.642788 0.098333
v 0.941359 0.342021 -0.101667
v 0.941359 0.342021 0.098333
v 0.811667 0.000000 0.098333
v 0.762818 -0.277036 0.098333
v 0.622163 -0.520658 0.098333
v 0.406667 -0.701481 0.098333
v 0.142322 -0.797694 0.098333
v -0.138988 -0.797694 0.098334
v -0.403333 -0.701481 0.098334
v -0.618829 -0.520658 0.098334
v -0.759484 -0.277036 0.098334
v -0.808333 -0.000000 0.098334
v -0.759484 0.277036 0.098334
v -0.618829 0.520658 0.098334
v -0.403333 0.701481 0.098334
v -0.138989 0.797694 0.098334
v 0.142321 0.797694 0.098333
v 0.406666 0.701481 0.098333
v 0.622163 0.520659 0.098333
v 0.762818 0.277037 0.098333
v 0.811667 0.000000 0.048333
v 0.762818 -0.277036 0.048333
v 0.622163 -0.520658 0.048333
v 0.406667 -0.701481 0.048333
v 0.142322 -0.797694 0.048333
v -0.138988 -0.797694 0.048334
v -0.403333 -0.701481 0.048334
v -0.618829 -0.520658 0.048334
v -0.759484 -0.277036 0.048334
v -0.808333 -0.000000 0.048334
v -0.759484 0.277036 0.048334
v -0.618829 0.520658 0.048334
v -0.403333 0.701481 0.048334
v -0.138989 0.797694 0.048334
v 0.142321 0.797694 0.048333
v 0.406666 0.701481 0.048333
v 0.622163 0.520659 0.048333
v 0.762818 0.277037 0.048333
v 0.811667 -0.000000 -0.101667
v 0.762818 -0.277036 -0.101667
v 0.622163 -0.520658 -0.101667
v 0.406667 -0.701481 -0.101667
v 0.142322 -0.797694 -0.101666
v -0.138988 -0.797694 -0.101666
v -0.403333 -0.701481 -0.101666
v -0.618829 -0.520658 -0.101666
v -0.759484 -0.277037 -0.101666
v -0.808333 -0.000000 -0.101666
v -0.759484 0.277036 -0.101666
v -0.618830 0.520658 -0.101666
v -0.403334 0.701480 -0.101667
v -0.138989 0.797694 -0.101667
v 0.142321 0.797694 -0.101667
v 0.406666 0.701481 -0.101667
v 0.622162 0.520658 -0.101667
v 0.762818 0.277037 -0.101667
v 0.811667 -0.000000 -0.041667
v 0.762818 -0.277036 -0.041667
v 0.622163 -0.520658 -0.041667
v 0.406667 -0.701481 -0.041667
v 0.142322 -0.797694 -0.041666
v -0.138988 -0.797694 -0.041666
v -0.403333 -0.701481 -0.041666
v -0.618829 -0.520658 -0.041666
v -0.759484 -0.277037 -0.041666
v -0.808333 -0.000000 -0.041666
v -0.759484 0.277036 -0.041666
v -0.618830 0.520658 -0.041666
v -0.403334 0.701480 -0.041667
v -0.138989 0.797694 -0.041667
v 0.142321 0.797694 -0.041667
v 0.406666 0.701481 -0.041667
v 0.622162 0.520658 -0.041667
v 0.762818 0.277037 -0.041667
vt 1.000000 0.500000
vt 0.969846 0.326352
vt 0.883022 0.173648
vt 0.750000 0.060308
vt 0.586824 0.000000
vt 0.413176 0.000000
vt 0.250000 0.060307
vt 0.116978 0.173648
vt 0.030154 0.326352
vt 0.000000 0.500000
vt 0.030154 0.673648
vt 0.116978 0.826352
vt 0.250000 0.939692
vt 0.413176 1.000000
vt 0.586824 1.000000
vt 0.750000 0.939693
vt 0.883022 0.826352
vt 0.189752 0.764345
vt 0.297500 0.856151
vt 0.969846 0.673649
vt 0.429672 0.095000
vt 0.570327 0.095000
vt 0.702500 0.143849
vt 0.570327 0.905000
vt 0.702500 0.856151
vt 0.880575 0.640655
vt 0.905000 0.500000
vt 0.297500 0.143849
vt 0.189752 0.235655
vt 0.095000 0.500000
vt 0.119425 0.640655
vt 0.880575 0.359345
vt 0.810248 0.235655
vt 0.429672 0.905000
vt 0.810248 0.764345
vt 0.119425 0.359345
vn 0.984800 -0.173600 -0.000000
vn 0.866000 -0.500000 -0.000000
vn 0.642800 -0.766000 -0.000000
vn 0.342000 -0.939700 0.000000
vn -0.000000 -1.000000 0.000000
vn -0.342000 -0.939700 0.000000
vn -0.642800 -0.766000 0.000000
vn -0.866000 -0.500000 0.000000
vn -0.984800 -0.173600 0.000000
vn -0.984800 0.173600 0.000000
vn -0.866000 0.500000 0.000000
vn -0.642800 0.766000 0.000000
vn -0.342000 0.939700 -0.000000
vn -0.000000 1.000000 -0.000000
vn 0.342000 0.939700 -0.000000
vn 0.642800 0.766000 -0.000000
vn 0.000000 0.000000 1.000000
vn 0.984800 0.173600 -0.000000
vn 0.866000 0.500000 -0.000000
vn -0.000000 -0.000000 -1.000000
usemtl Coin
s off
f 1/1/1 2/1/1 4/2/1 3/2/1
f 3/2/2 4/2/2 6/3/2 5/3/2
f 5/3/3 6/3/3 8/4/3 7/4/3
f 7/4/4 8/4/4 10/5/4 9/5/4
f 9/5/5 10/5/5 12/6/5 11/6/5
f 11/6/6 12/6/6 14/7/6 13/7/6
f 13/7/7 14/7/7 16/8/7 15/8/7
f 15/8/8 16/8/8 18/9/8 17/9/8
f 17/9/9 18/9/9 20/10/9 19/10/9
f 19/10/10 20/10/10 22/11/10 21/11/10
f 21/11/11 22/11/11 24/12/11 23/12/11
f 23/12/12 24/12/12 26/13/12 25/13/12
f 25/13/13 26/13/13 28/14/13 27/14/13
f 27/14/14 28/14/14 30/15/14 29/15/14
f 29/15/15 30/15/15 32/16/15 31/16/15
f 31/16/16 32/16/16 34/17/16 33/17/16
f 26/13/17 24/12/17 48/18/17 49/19/17
f 35/20/18 36/20/18 2/1/18 1/1/18
f 33/17/19 34/17/19 36/20/19 35/20/19
f 9/5/20 11/6/20 78/21/20 77/22/20
f 41/22/13 40/23/13 58/23/13 59/22/13
f 10/5/17 8/4/17 40/23/17 41/22/17
f 32/16/17 30/15/17 51/24/17 52/25/17
f 2/1/17 36/20/17 54/26/17 37/27/17
f 16/8/17 14/7/17 43/28/17 44/29/17
f 22/11/17 20/10/17 46/30/17 47/31/17
f 6/3/17 4/2/17 38/32/17 39/33/17
f 28/14/17 26/13/17 49/19/17 50/34/17
f 12/6/17 10/5/17 41/22/17 42/21/17
f 34/17/17 32/16/17 52/25/17 53/35/17
f 4/2/17 2/1/17 37/27/17 38/32/17
f 18/9/17 16/8/17 44/29/17 45/36/17
f 24/12/17 22/11/17 47/31/17 48/18/17
f 8/4/17 6/3/17 39/33/17 40/23/17
f 30/15/17 28/14/17 50/34/17 51/24/17
f 36/20/17 34/17/17 53/35/17 54/26/17
f 14/7/17 12/6/17 42/21/17 43/28/17
f 20/10/17 18/9/17 45/36/17 46/30/17
f 56/32/17 55/27/17 72/26/17 71/35/17 70/25/17 69/24/17 68/34/17 67/19/17 66/18/17 65/31/17 64/30/17 63/36/17 62/29/17 61/28/17 60/21/17 59/22/17 58/23/17 57/33/17
f 52/25/6 51/24/6 69/24/6 70/25/6
f 39/33/11 38/32/11 56/32/11 57/33/11
f 50/34/4 49/19/4 67/19/4 68/34/4
f 48/18/2 47/31/2 65/31/2 66/18/2
f 46/30/18 45/36/18 63/36/18 64/30/18
f 37/27/9 54/26/9 72/26/9 55/27/9
f 44/29/16 43/28/16 61/28/16 62/29/16
f 42/21/14 41/22/14 59/22/14 60/21/14
f 53/35/7 52/25/7 70/25/7 71/35/7
f 40/23/12 39/33/12 57/33/12 58/23/12
f 51/24/5 50/34/5 68/34/5 69/24/5
f 38/32/10 37/27/10 55/27/10 56/32/10
f 49/19/3 48/18/3 66/18/3 67/19/3
f 47/31/1 46/30/1 64/30/1 65/31/1
f 45/36/19 44/29/19 62/29/19 63/36/19
f 54/26/8 53/35/8 71/35/8 72/26/8
f 43/28/15 42/21/15 60/21/15 61/28/15
f 81/36/18 82/30/18 100/30/18 99/36/18
f 31/16/20 33/17/20 89/35/20 88/25/20
f 1/1/20 3/2/20 74/32/20 73/27/20
f 15/8/20 17/9/20 81/36/20 80/29/20
f 21/11/20 23/12/20 84/18/20 83/31/20
f 5/3/20 7/4/20 76/23/20 75/33/20
f 27/14/20 29/15/20 87/24/20 86/34/20
f 33/17/20 35/20/20 90/26/20 89/35/20
f 11/6/20 13/7/20 79/28/20 78/21/20
f 17/9/20 19/10/20 82/30/20 81/36/20
f 23/12/20 25/13/20 85/19/20 84/18/20
f 7/4/20 9/5/20 77/22/20 76/23/20
f 29/15/20 31/16/20 88/25/20 87/24/20
f 35/20/20 1/1/20 73/27/20 90/26/20
f 13/7/20 15/8/20 80/29/20 79/28/20
f 19/10/20 21/11/20 83/31/20 82/30/20
f 3/2/20 5/3/20 75/33/20 74/32/20
f 25/13/20 27/14/20 86/34/20 85/19/20
f 91/27/20 92/32/20 93/33/20 94/23/20 95/22/20 96/21/20 97/28/20 98/29/20 99/36/20 100/30/20 101/31/20 102/18/20 103/19/20 104/34/20 105/24/20 106/25/20 107/35/20 108/26/20
f 90/26/9 73/27/9 91/27/9 108/26/9
f 79/28/16 80/29/16 98/29/16 97/28/16
f 77/22/14 78/21/14 96/21/14 95/22/14
f 88/25/7 89/35/7 107/35/7 106/25/7
f 75/33/12 76/23/12 94/23/12 93/33/12
f 86/34/5 87/24/5 105/24/5 104/34/5
f 73/27/10 74/32/10 92/32/10 91/27/10
f 84/18/3 85/19/3 103/19/3 102/18/3
f 82/30/1 83/31/1 101/31/1 100/30/1
f 80/29/19 81/36/19 99/36/19 98/29/19
f 89/35/8 90/26/8 108/26/8 107/35/8
f 78/21/15 79/28/15 97/28/15 96/21/15
f 76/23/13 77/22/13 95/22/13 94/23/13
f 87/24/6 88/25/6 106/25/6 105/24/6
f 74/32/11 75/33/11 93/33/11 92/32/11
f 85/19/4 86/34/4 104/34/4 103/19/4
f 83/31/2 84/18/2 102/18/2 101/31/2
